<svg width="447" height="101" viewBox="0 0 447 101" fill="none" xmlns="http://www.w3.org/2000/svg">
<defs>
  <linearGradient id="appsGradient" x1="0%" y1="0%" x2="100%" y2="0%">
    <stop offset="0%" stop-color="#97AEFF"/>
    <stop offset="50%" stop-color="#FAA1F1"/>
    <stop offset="100%" stop-color="#6161FF"/>
  </linearGradient>
</defs>
<path d="M24.0407 79.6657C19.8983 79.6657 16.3477 78.9507 13.3888 77.5206C10.4793 76.0905 8.23548 74.0193 6.65742 71.307C5.12868 68.5947 4.36431 65.3153 4.36431 61.4688V56.5867C4.36431 52.7895 5.178 49.5347 6.80536 46.8225C8.48205 44.1102 10.8491 42.039 13.9066 40.6089C17.0134 39.1294 20.6873 38.3897 24.9283 38.3897C31.4378 38.3897 36.4432 40.1157 39.9445 43.5677C43.4952 46.9704 45.2705 51.8032 45.2705 58.0661V61.0989H11.5395V57.0305H38.3172L37.0597 58.5839V55.9949C37.0597 52.395 35.9994 49.5841 33.8789 47.5622C31.7584 45.491 28.8735 44.4554 25.2242 44.4554C21.4764 44.4554 18.5175 45.491 16.3477 47.5622C14.2272 49.6334 13.1669 52.4936 13.1669 56.1429V62.4304C13.1669 66.1783 14.1778 69.0385 16.1997 71.0111C18.2216 72.9837 21.0572 73.9699 24.7064 73.9699C27.9119 73.9699 30.5009 73.3042 32.4734 71.9727C34.4953 70.5919 35.8021 68.6933 36.3939 66.2769L44.7527 66.8687C43.6678 70.9618 41.3253 74.1179 37.7254 76.337C34.1255 78.5562 29.5639 79.6657 24.0407 79.6657ZM40.8368 39.0555H49.6394L61.6967 74.6357H61.8447L73.976 39.0555H82.7046L69.4637 79H54.0777L40.8368 39.0555ZM98.1739 79.6657C94.0315 79.6657 90.4808 78.9507 87.522 77.5206C84.6124 76.0905 82.3686 74.0193 80.7906 71.307C79.2618 68.5947 78.4975 65.3153 78.4975 61.4688V56.5867C78.4975 52.7895 79.3112 49.5347 80.9385 46.8225C82.6152 44.1102 84.9823 42.039 88.0398 40.6089C91.1466 39.1294 94.8205 38.3897 99.0615 38.3897C105.571 38.3897 110.576 40.1157 114.078 43.5677C117.628 46.9704 119.404 51.8032 119.404 58.0661V61.0989H85.6727V57.0305H112.45L111.193 58.5839V55.9949C111.193 52.395 110.133 49.5841 108.012 47.5622C105.892 45.491 103.007 44.4554 99.3574 44.4554C95.6095 44.4554 92.6507 45.491 90.4808 47.5622C88.3603 49.6334 87.3001 52.4936 87.3001 56.1429V62.4304C87.3001 66.1783 88.311 69.0385 90.3329 71.0111C92.3548 72.9837 95.1903 73.9699 98.8396 73.9699C102.045 73.9699 104.634 73.3042 106.607 71.9727C108.628 70.5919 109.935 68.6933 110.527 66.2769L118.886 66.8687C117.801 70.9618 115.458 74.1179 111.859 76.337C108.259 78.5562 103.697 79.6657 98.1739 79.6657ZM120.151 39.0555H127.179L129.028 54.5155V79H120.151V39.0555ZM126.957 58.288C126.957 51.7292 128.14 46.7731 130.507 43.4198C132.924 40.0664 136.425 38.3897 141.011 38.3897C141.85 38.3897 142.688 38.4637 143.526 38.6116C144.414 38.7103 145.277 38.8582 146.115 39.0555L145.598 46.5266C144.069 46.1321 142.392 45.9348 140.568 45.9348C136.77 45.9348 133.885 47.1677 131.913 49.6334C129.99 52.0498 129.028 55.6744 129.028 60.5072L126.957 58.288ZM152.317 91.4272L158.383 76.7809L157.569 81.3671L140.334 39.0555H149.211L161.638 70.5673H161.86L173.547 39.0555H182.35L161.342 93.1285L152.317 91.4272ZM195.08 79.6657C189.705 79.6657 185.513 78.0877 182.505 74.9316C179.546 71.7755 178.067 67.2879 178.067 61.4688V56.5867C178.067 50.8169 179.571 46.354 182.579 43.1979C185.587 39.9924 189.853 38.3897 195.376 38.3897C199.321 38.3897 202.749 39.1788 205.658 40.7568C208.617 42.2856 210.91 44.48 212.538 47.3403C214.165 50.2005 214.979 53.6032 214.979 57.5483V60.1373C214.979 64.1318 214.165 67.5838 212.538 70.4933C210.91 73.4028 208.592 75.6713 205.584 77.2987C202.625 78.8767 199.124 79.6657 195.08 79.6657ZM197.669 73.3042C201.91 73.3042 205.214 72.096 207.582 69.6796C209.998 67.2139 211.206 63.8852 211.206 59.6935V58.1401C211.206 53.9977 209.998 50.7676 207.582 48.4498C205.165 46.0827 201.861 44.8992 197.669 44.8992C194.316 44.8992 191.678 45.9595 189.754 48.08C187.831 50.2005 186.87 53.184 186.87 57.0305V61.1729C186.87 64.9701 187.831 67.9536 189.754 70.1234C191.678 72.2439 194.316 73.3042 197.669 73.3042ZM211.206 66.129V24.2612H220.083V79H214.461L211.206 66.129ZM249.235 65.3153V53.9977C249.235 50.8416 248.273 48.5238 246.35 47.0444C244.427 45.5156 241.468 44.7513 237.473 44.7513C235.057 44.7513 232.616 45.0718 230.15 45.7129C227.685 46.354 225.391 47.2663 223.271 48.4498L222.087 42.3842C223.616 41.5952 225.367 40.9048 227.339 40.313C229.361 39.7212 231.432 39.2527 233.553 38.9075C235.723 38.5623 237.794 38.3897 239.767 38.3897C245.98 38.3897 250.616 39.6966 253.673 42.3102C256.78 44.9239 258.333 48.8197 258.333 53.9977V79H251.38L249.235 65.3153ZM235.772 79.6657C231.137 79.6657 227.487 78.6301 224.824 76.5589C222.211 74.4877 220.904 71.6029 220.904 67.9043V66.4988C220.904 62.751 222.235 59.8414 224.898 57.7702C227.561 55.699 231.309 54.6634 236.142 54.6634C241.172 54.6634 245.142 55.6744 248.051 57.6962C250.961 59.7181 252.416 62.5537 252.416 66.203V67.6824C252.416 71.4303 250.936 74.3645 247.977 76.485C245.068 78.6055 240.999 79.6657 235.772 79.6657ZM238.287 75.0055C241.591 75.0055 244.205 74.3151 246.128 72.9343C248.051 71.5536 249.013 69.6796 249.013 67.3125V66.3509C249.013 64.1318 248.076 62.3811 246.202 61.0989C244.377 59.8168 241.838 59.1757 238.583 59.1757C235.575 59.1757 233.232 59.8168 231.556 61.0989C229.879 62.3318 229.041 64.1811 229.041 66.6468V67.5344C229.041 69.9015 229.854 71.7508 231.482 73.0823C233.109 74.3645 235.378 75.0055 238.287 75.0055ZM266.407 91.4272L272.472 76.7809L271.659 81.3671L254.423 39.0555H263.3L275.727 70.5673H275.949L287.636 39.0555H296.439L275.431 93.1285L266.407 91.4272Z" fill="#FFFFFF"/>
<path d="M304.159 28.2201H312.147L330.64 80H325.388L308.227 31.7707H308.079L290.918 80H285.666L304.159 28.2201ZM294.838 62.1729H321.394V65.9454H294.838V62.1729ZM351.703 80.5178C347.857 80.5178 344.503 79.7534 341.643 78.2247C338.832 76.6466 336.638 74.4028 335.06 71.4933C333.481 68.5838 332.692 65.1564 332.692 61.2113V58.4004C332.692 54.5045 333.481 51.1512 335.06 48.3403C336.638 45.5293 338.857 43.3595 341.717 41.8308C344.577 40.302 347.955 39.5377 351.851 39.5377C357.029 39.5377 361.023 41.0664 363.834 44.1239C366.645 47.1814 368.051 51.4964 368.051 57.0689V62.9866C368.051 68.5591 366.621 72.8741 363.76 75.9316C360.95 78.9891 356.93 80.5178 351.703 80.5178ZM329.956 40.0555H333.136L335.06 53.8141V93.3148H329.956V40.0555ZM350.741 76.6713C354.588 76.6713 357.571 75.4631 359.692 73.0467C361.862 70.581 362.947 67.129 362.947 62.6907V57.4387C362.947 53.0005 361.862 49.5485 359.692 47.0827C357.571 44.617 354.588 43.3842 350.741 43.3842C345.859 43.3842 342.013 44.765 339.202 47.5266C336.44 50.2882 335.06 54.0854 335.06 58.9182V60.7674C335.06 65.6989 336.465 69.5947 339.276 72.4549C342.087 75.2658 345.909 76.6713 350.741 76.6713ZM392.743 80.5178C388.896 80.5178 385.543 79.7534 382.683 78.2247C379.872 76.6466 377.677 74.4028 376.099 71.4933C374.521 68.5838 373.732 65.1564 373.732 61.2113V58.4004C373.732 54.5045 374.521 51.1512 376.099 48.3403C377.677 45.5293 379.896 43.3595 382.757 41.8308C385.617 40.302 388.995 39.5377 392.891 39.5377C398.069 39.5377 402.063 41.0664 404.874 44.1239C407.685 47.1814 409.09 51.4964 409.09 57.0689V62.9866C409.09 68.5591 407.66 72.8741 404.8 75.9316C401.989 78.9891 397.97 80.5178 392.743 80.5178ZM370.995 40.0555H374.176L376.099 53.8141V93.3148H370.995V40.0555ZM391.781 76.6713C395.628 76.6713 398.611 75.4631 400.732 73.0467C402.901 70.581 403.986 67.129 403.986 62.6907V57.4387C403.986 53.0005 402.901 49.5485 400.732 47.0827C398.611 44.617 395.628 43.3842 391.781 43.3842C386.899 43.3842 383.052 44.765 380.242 47.5266C377.48 50.2882 376.099 54.0854 376.099 58.9182V60.7674C376.099 65.6989 377.505 69.5947 380.316 72.4549C383.126 75.2658 386.948 76.6713 391.781 76.6713ZM426.457 80.5178C421.23 80.5178 417.236 79.5315 414.474 77.5589C411.713 75.5371 410.036 72.4056 409.444 68.1646L414.622 67.9427C414.967 71.0495 416.102 73.3672 418.025 74.896C419.948 76.3754 422.759 77.1151 426.457 77.1151C429.959 77.1151 432.646 76.4987 434.52 75.2658C436.394 74.033 437.331 72.2823 437.331 70.0139C437.331 68.3372 436.838 67.0304 435.852 66.0934C434.866 65.1071 433.583 64.3427 432.005 63.8003C430.427 63.2578 428.677 62.7893 426.753 62.3948C424.83 62.0003 422.907 61.5811 420.984 61.1373C419.06 60.6442 417.285 60.0031 415.658 59.214C414.08 58.3757 412.797 57.2661 411.811 55.8853C410.825 54.5045 410.332 52.6799 410.332 50.4115C410.332 46.9101 411.688 44.2225 414.4 42.3486C417.162 40.4746 421.156 39.5377 426.384 39.5377C429.638 39.5377 432.4 39.9568 434.668 40.7952C436.937 41.6335 438.737 42.9157 440.068 44.6417C441.4 46.3184 442.213 48.4389 442.509 51.0032L437.331 51.2251C437.085 48.4635 436.049 46.3923 434.224 45.0115C432.4 43.6307 429.811 42.9403 426.457 42.9403C423.005 42.9403 420.343 43.5814 418.469 44.8636C416.644 46.1458 415.732 47.9704 415.732 50.3375C415.732 52.0142 416.2 53.3703 417.137 54.4059C418.123 55.3922 419.406 56.1812 420.984 56.773C422.611 57.3155 424.386 57.7839 426.31 58.1785C428.233 58.573 430.156 58.9921 432.079 59.436C434.003 59.8798 435.753 60.4962 437.331 61.2852C438.959 62.0743 440.241 63.1592 441.178 64.54C442.164 65.8715 442.657 67.6468 442.657 69.8659C442.657 73.3179 441.276 75.9562 438.515 77.7809C435.753 79.6055 431.734 80.5178 426.457 80.5178Z" fill="url(#appsGradient)"/>
</svg>
