<svg width="18" height="18" fill="none" xmlns="http://www.w3.org/2000/svg"><path d="M3.343 13.182a1.86 1.86 0 0 1-1.613-.911 1.704 1.704 0 0 1 .051-1.794L5.102 5.4a1.864 1.864 0 0 1 1.64-.868c.67.018 1.277.382 1.586.952.31.57.27 1.256-.1 1.791l-3.319 5.08c-.338.516-.93.83-1.566.829Z" fill="#FB275D"/><path d="M8.814 13.182c-.67 0-1.286-.348-1.61-.91a1.698 1.698 0 0 1 .05-1.788l3.315-5.067a1.86 1.86 0 0 1 1.64-.886 1.851 1.851 0 0 1 1.597.958 1.7 1.7 0 0 1-.118 1.8l-3.315 5.066a1.861 1.861 0 0 1-1.56.827Z" fill="#FC0"/><path d="M14.616 13.313a1.84 1.84 0 0 0 1.847-1.834 1.84 1.84 0 0 0-1.847-1.835 1.84 1.84 0 0 0-1.847 1.835 1.84 1.84 0 0 0 1.847 1.834Z" fill="#00CA72"/></svg>