<svg width="368" height="99" viewBox="0 0 368 99" fill="none" xmlns="http://www.w3.org/2000/svg">
<g clip-path="url(#clip0_35586_237861)">
<path d="M7.81686 36.5919C5.78716 36.59 3.91835 35.5331 2.93601 33.8314C1.95367 32.1298 2.01254 30.0514 3.08977 28.4033L13.1408 13.0296C14.1732 11.3556 16.0723 10.3501 18.101 10.4034C20.1296 10.4567 21.9684 11.5604 22.9035 13.286C23.8386 15.0117 23.7227 17.0876 22.6009 18.7079L12.5559 34.0815C11.5342 35.6457 9.74283 36.5946 7.81686 36.5919Z" fill="#FB275D"/>
<path d="M24.9416 36.5919C22.9152 36.5901 21.0494 35.5356 20.0687 33.838C19.088 32.1404 19.1468 30.0669 20.2222 28.4227L30.2538 13.0856C31.27 11.3872 33.1758 10.3576 35.2197 10.4028C37.2636 10.448 39.1177 11.5608 40.0508 13.3023C40.984 15.0438 40.8465 17.1346 39.6925 18.7504L29.6609 34.0875C28.6431 35.6445 26.8602 36.5907 24.9416 36.5919Z" fill="#FFCC00"/>
<path d="M41.6375 36.6231C44.7072 36.6231 47.1958 34.1389 47.1958 31.0745C47.1958 28.0101 44.7072 25.5259 41.6375 25.5259C38.5677 25.5259 36.0792 28.0101 36.0792 31.0745C36.0792 34.1389 38.5677 36.6231 41.6375 36.6231Z" fill="#00CA72"/>
<path d="M87.6678 11.79C90.7146 11.79 93.1315 12.7129 94.9186 14.5586C96.735 16.4042 97.6432 18.9677 97.6432 22.2489V36.5748H90.1726V23.2596C90.1726 21.6776 89.7478 20.4618 88.8982 19.6122C88.0779 18.7333 86.9354 18.2939 85.4705 18.2939C84.0057 18.2939 82.8485 18.7333 81.9989 19.6122C81.1786 20.4618 80.7685 21.6776 80.7685 23.2596V36.5748H73.2979V23.2596C73.2979 21.6776 72.8731 20.4618 72.0235 19.6122C71.2032 18.7333 70.0606 18.2939 68.5958 18.2939C67.131 18.2939 65.9738 18.7333 65.1242 19.6122C64.3039 20.4618 63.8937 21.6776 63.8937 23.2596V36.5748H56.3792V12.0537H63.8937V15.1298C64.6554 14.1045 65.6515 13.2988 66.8819 12.7129C68.1124 12.0977 69.504 11.79 71.0567 11.79C72.9024 11.79 74.543 12.1855 75.9785 12.9766C77.4433 13.7676 78.5859 14.8955 79.4062 16.3603C80.2558 15.0127 81.413 13.914 82.8778 13.0644C84.3426 12.2148 85.9393 11.79 87.6678 11.79Z" fill="white"/>
<path d="M112.742 36.9264C110.34 36.9264 108.172 36.4137 106.238 35.3883C104.334 34.3629 102.825 32.8981 101.712 30.9939C100.628 29.0896 100.086 26.8631 100.086 24.3143C100.086 21.7948 100.643 19.5829 101.756 17.6786C102.869 15.7451 104.393 14.2656 106.326 13.2402C108.26 12.2148 110.428 11.7022 112.83 11.7022C115.232 11.7022 117.4 12.2148 119.334 13.2402C121.268 14.2656 122.791 15.7451 123.904 17.6786C125.018 19.5829 125.574 21.7948 125.574 24.3143C125.574 26.8338 125.003 29.0603 123.86 30.9939C122.747 32.8981 121.209 34.3629 119.246 35.3883C117.313 36.4137 115.145 36.9264 112.742 36.9264ZM112.742 30.4226C114.178 30.4226 115.394 29.8952 116.39 28.8406C117.415 27.7859 117.928 26.2771 117.928 24.3143C117.928 22.3514 117.43 20.8426 116.434 19.788C115.467 18.7333 114.266 18.206 112.83 18.206C111.365 18.206 110.15 18.7333 109.183 19.788C108.216 20.8133 107.733 22.3221 107.733 24.3143C107.733 26.2771 108.201 27.7859 109.139 28.8406C110.106 29.8952 111.307 30.4226 112.742 30.4226Z" fill="white"/>
<path d="M143.184 11.79C146.055 11.79 148.34 12.7275 150.039 14.6025C151.767 16.4482 152.632 18.997 152.632 22.2489V36.5748H145.161V23.2596C145.161 21.619 144.736 20.3446 143.887 19.4364C143.037 18.5282 141.895 18.0741 140.459 18.0741C139.023 18.0741 137.881 18.5282 137.031 19.4364C136.182 20.3446 135.757 21.619 135.757 23.2596V36.5748H128.242V12.0537H135.757V15.3056C136.519 14.2216 137.544 13.3721 138.833 12.7568C140.122 12.1123 141.572 11.79 143.184 11.79Z" fill="white"/>
<path d="M155.041 24.2703C155.041 21.7508 155.51 19.5389 156.447 17.6347C157.414 15.7304 158.718 14.2656 160.358 13.2402C161.999 12.2148 163.83 11.7022 165.851 11.7022C167.463 11.7022 168.928 12.0391 170.246 12.7129C171.594 13.3867 172.648 14.2949 173.41 15.4374V4.05579H180.924V36.5748H173.41V33.0593C172.707 34.2311 171.696 35.1686 170.378 35.8717C169.089 36.5748 167.58 36.9264 165.851 36.9264C163.83 36.9264 161.999 36.4137 160.358 35.3883C158.718 34.3336 157.414 32.8542 156.447 30.9499C155.51 29.0163 155.041 26.7898 155.041 24.2703ZM173.41 24.3143C173.41 22.4393 172.883 20.9598 171.828 19.8759C170.803 18.7919 169.543 18.2499 168.049 18.2499C166.555 18.2499 165.28 18.7919 164.226 19.8759C163.2 20.9305 162.687 22.3954 162.687 24.2703C162.687 26.1453 163.2 27.6394 164.226 28.7527C165.28 29.8366 166.555 30.3786 168.049 30.3786C169.543 30.3786 170.803 29.8366 171.828 28.7527C172.883 27.6687 173.41 26.1892 173.41 24.3143Z" fill="white"/>
<path d="M183.548 24.2703C183.548 21.7508 184.017 19.5389 184.955 17.6347C185.921 15.7304 187.225 14.2656 188.866 13.2402C190.506 12.2148 192.337 11.7022 194.359 11.7022C196.087 11.7022 197.596 12.0537 198.885 12.7568C200.203 13.4599 201.214 14.3828 201.917 15.5253V12.0537H209.432V36.5748H201.917V33.1032C201.185 34.2458 200.16 35.1686 198.841 35.8717C197.552 36.5748 196.043 36.9264 194.315 36.9264C192.323 36.9264 190.506 36.4137 188.866 35.3883C187.225 34.3336 185.921 32.8542 184.955 30.9499C184.017 29.0163 183.548 26.7898 183.548 24.2703ZM201.917 24.3143C201.917 22.4393 201.39 20.9598 200.335 19.8759C199.31 18.7919 198.05 18.2499 196.556 18.2499C195.062 18.2499 193.788 18.7919 192.733 19.8759C191.708 20.9305 191.195 22.3954 191.195 24.2703C191.195 26.1453 191.708 27.6394 192.733 28.7527C193.788 29.8366 195.062 30.3786 196.556 30.3786C198.05 30.3786 199.31 29.8366 200.335 28.7527C201.39 27.6687 201.917 26.1892 201.917 24.3143Z" fill="white"/>
<path d="M238.598 12.0537L223.218 48.2202H215.132L220.757 35.7399L210.781 12.0537H219.175L224.844 27.3904L230.469 12.0537H238.598Z" fill="white"/>
<path d="M234.045 36.8663C233.373 36.8663 232.816 36.6629 232.374 36.2561C231.949 35.8315 231.737 35.3097 231.737 34.6906C231.737 34.0715 231.949 33.5586 232.374 33.1517C232.816 32.7272 233.373 32.515 234.045 32.515C234.7 32.515 235.239 32.7272 235.664 33.1517C236.088 33.5586 236.301 34.0715 236.301 34.6906C236.301 35.3097 236.088 35.8315 235.664 36.2561C235.239 36.6629 234.7 36.8663 234.045 36.8663Z" fill="white"/>
<path d="M239.445 31.1684C239.445 30.0275 239.677 29.0326 240.142 28.1835C240.606 27.3212 241.249 26.6579 242.072 26.1936C242.894 25.716 243.836 25.4772 244.897 25.4772C246.264 25.4772 247.392 25.8221 248.28 26.512C249.182 27.1885 249.786 28.1437 250.091 29.3775H247.086C246.927 28.8999 246.655 28.5284 246.271 28.2631C245.899 27.9845 245.435 27.8452 244.878 27.8452C244.082 27.8452 243.451 28.1371 242.987 28.7208C242.523 29.2912 242.291 30.1071 242.291 31.1684C242.291 32.2165 242.523 33.0323 242.987 33.6161C243.451 34.1865 244.082 34.4717 244.878 34.4717C246.005 34.4717 246.741 33.9676 247.086 32.9594H250.091C249.786 34.1533 249.182 35.1019 248.28 35.805C247.378 36.5081 246.251 36.8597 244.897 36.8597C243.836 36.8597 242.894 36.6275 242.072 36.1632C241.249 35.6856 240.606 35.0223 240.142 34.1733C239.677 33.3109 239.445 32.3093 239.445 31.1684Z" fill="white"/>
<path d="M256.629 36.8597C255.568 36.8597 254.613 36.6275 253.764 36.1632C252.915 35.6856 252.245 35.0157 251.754 34.1533C251.276 33.291 251.038 32.2961 251.038 31.1684C251.038 30.0408 251.283 29.0458 251.774 28.1835C252.278 27.3212 252.961 26.6579 253.824 26.1936C254.686 25.716 255.648 25.4772 256.709 25.4772C257.77 25.4772 258.732 25.716 259.594 26.1936C260.457 26.6579 261.133 27.3212 261.624 28.1835C262.128 29.0458 262.38 30.0408 262.38 31.1684C262.38 32.2961 262.122 33.291 261.604 34.1533C261.1 35.0157 260.41 35.6856 259.535 36.1632C258.672 36.6275 257.704 36.8597 256.629 36.8597ZM256.629 34.4319C257.134 34.4319 257.605 34.3125 258.042 34.0738C258.493 33.8217 258.852 33.4502 259.117 32.9594C259.382 32.4685 259.515 31.8715 259.515 31.1684C259.515 30.1204 259.236 29.3178 258.679 28.7606C258.135 28.1901 257.465 27.9049 256.669 27.9049C255.873 27.9049 255.203 28.1901 254.659 28.7606C254.129 29.3178 253.863 30.1204 253.863 31.1684C253.863 32.2165 254.122 33.0257 254.64 33.5962C255.17 34.1533 255.833 34.4319 256.629 34.4319Z" fill="white"/>
<path d="M277.717 25.4971C279.07 25.4971 280.158 25.915 280.98 26.7507C281.816 27.5733 282.234 28.7274 282.234 30.2133V36.6806H279.448V30.5913C279.448 29.729 279.229 29.0724 278.791 28.6213C278.354 28.157 277.757 27.9248 277 27.9248C276.244 27.9248 275.641 28.157 275.19 28.6213C274.752 29.0724 274.533 29.729 274.533 30.5913V36.6806H271.747V30.5913C271.747 29.729 271.528 29.0724 271.09 28.6213C270.653 28.157 270.056 27.9248 269.299 27.9248C268.53 27.9248 267.92 28.157 267.469 28.6213C267.031 29.0724 266.812 29.729 266.812 30.5913V36.6806H264.026V25.6563H266.812V26.9895C267.17 26.5252 267.628 26.1604 268.185 25.8951C268.755 25.6297 269.379 25.4971 270.056 25.4971C270.918 25.4971 271.687 25.6828 272.364 26.0543C273.04 26.4125 273.564 26.9298 273.936 27.6064C274.294 26.9696 274.812 26.4589 275.488 26.0742C276.178 25.6894 276.921 25.4971 277.717 25.4971Z" fill="white"/>
<path d="M2.12751 74.4869C2.12751 71.4434 2.79236 68.7249 4.12205 66.3314C5.45175 63.9084 7.269 62.0321 9.5738 60.7024C11.8786 59.3432 14.4493 58.6635 17.286 58.6635C20.7432 58.6635 23.6981 59.4909 26.1507 61.1456C28.6328 62.7708 30.4352 65.0756 31.5581 68.06H27.9236C27.0371 65.9621 25.6779 64.3221 23.8459 63.1402C22.0434 61.9582 19.8568 61.3672 17.286 61.3672C15.0108 61.3672 12.9571 61.8991 11.1251 62.9629C9.32264 64.0266 7.90429 65.5632 6.87009 67.5725C5.83588 69.5523 5.31878 71.8571 5.31878 74.4869C5.31878 77.1167 5.83588 79.4215 6.87009 81.4013C7.90429 83.3811 9.32264 84.9028 11.1251 85.9666C12.9571 87.0303 15.0108 87.5622 17.286 87.5622C19.8568 87.5622 22.0434 86.986 23.8459 85.8336C25.6779 84.6517 27.0371 83.0265 27.9236 80.9581H31.5581C30.4352 83.913 28.6328 86.203 26.1507 87.8282C23.6686 89.4533 20.7137 90.2659 17.286 90.2659C14.4493 90.2659 11.8786 89.6011 9.5738 88.2714C7.269 86.9122 5.45175 85.0358 4.12205 82.6424C2.79236 80.2489 2.12751 77.5304 2.12751 74.4869ZM59.7247 76.6587C59.7247 77.7225 59.6952 78.5351 59.6361 79.0965H39.5577C39.6464 80.9285 40.0896 82.4946 40.8874 83.7948C41.6852 85.0949 42.7342 86.0848 44.0343 86.7644C45.3345 87.4145 46.7528 87.7395 48.2894 87.7395C50.2987 87.7395 51.983 87.252 53.3422 86.2769C54.731 85.3017 55.647 83.9868 56.0902 82.3321H59.3702C58.7792 84.696 57.5086 86.6314 55.5584 88.1384C53.6377 89.6159 51.2147 90.3546 48.2894 90.3546C46.0141 90.3546 43.9753 89.8523 42.1728 88.8476C40.3703 87.8134 38.952 86.3655 37.9178 84.5039C36.9131 82.6128 36.4108 80.4114 36.4108 77.8998C36.4108 75.3881 36.9131 73.1868 37.9178 71.2956C38.9224 69.4045 40.326 67.9566 42.1285 66.952C43.9309 65.9473 45.9846 65.445 48.2894 65.445C50.5942 65.445 52.6035 65.9473 54.3173 66.952C56.0607 67.9566 57.3904 69.3159 58.3064 71.0297C59.252 72.714 59.7247 74.5903 59.7247 76.6587ZM56.5778 76.5701C56.6073 74.7676 56.238 73.2311 55.4697 71.9605C54.731 70.6899 53.7116 69.7295 52.4114 69.0795C51.1113 68.4294 49.6929 68.1044 48.1564 68.1044C45.8516 68.1044 43.8866 68.8431 42.2614 70.3205C40.6362 71.798 39.735 73.8811 39.5577 76.5701H56.5778ZM68.5925 70.0989C69.2721 68.5919 70.3063 67.4247 71.6951 66.5974C73.1134 65.77 74.8421 65.3563 76.8809 65.3563V68.5919H76.0388C73.7931 68.5919 71.9906 69.1977 70.6314 70.4092C69.2721 71.6207 68.5925 73.6448 68.5925 76.4814V90H65.4899V65.7996H68.5925V70.0989ZM85.6704 68.4146V83.4402C85.6704 84.9176 85.9511 85.937 86.5125 86.4985C87.074 87.0599 88.0638 87.3406 89.4822 87.3406H92.3189V90H88.9946C86.808 90 85.1828 89.4977 84.1191 88.493C83.0553 87.4588 82.5235 85.7745 82.5235 83.4402V68.4146H79.1549V65.7996H82.5235V59.7273H85.6704V65.7996H92.3189V68.4146H85.6704ZM99.0757 61.2343C98.4552 61.2343 97.9233 61.0127 97.4801 60.5694C97.0369 60.1262 96.8153 59.5795 96.8153 58.9295C96.8153 58.2794 97.0369 57.7475 97.4801 57.3338C97.9233 56.8906 98.4552 56.669 99.0757 56.669C99.6963 56.669 100.228 56.8906 100.671 57.3338C101.115 57.7475 101.336 58.2794 101.336 58.9295C101.336 59.5795 101.115 60.1262 100.671 60.5694C100.228 61.0127 99.6963 61.2343 99.0757 61.2343ZM100.627 65.7996V90H97.5244V65.7996H100.627ZM117.271 68.4146H111.642V90H108.539V68.4146H105.171V65.7996H108.539V64.1153C108.539 61.4854 109.204 59.55 110.534 58.309C111.893 57.0679 114.08 56.4474 117.094 56.4474V59.1068C115.084 59.1068 113.666 59.4909 112.839 60.2592C112.041 61.0274 111.642 62.3128 111.642 64.1153V65.7996H117.271V68.4146ZM123.795 61.2343C123.175 61.2343 122.643 61.0127 122.2 60.5694C121.756 60.1262 121.535 59.5795 121.535 58.9295C121.535 58.2794 121.756 57.7475 122.2 57.3338C122.643 56.8906 123.175 56.669 123.795 56.669C124.416 56.669 124.948 56.8906 125.391 57.3338C125.834 57.7475 126.056 58.2794 126.056 58.9295C126.056 59.5795 125.834 60.1262 125.391 60.5694C124.948 61.0127 124.416 61.2343 123.795 61.2343ZM125.347 65.7996V90H122.244V65.7996H125.347ZM154.357 76.6587C154.357 77.7225 154.327 78.5351 154.268 79.0965H134.19C134.278 80.9285 134.722 82.4946 135.519 83.7948C136.317 85.0949 137.366 86.0848 138.666 86.7644C139.966 87.4145 141.385 87.7395 142.921 87.7395C144.931 87.7395 146.615 87.252 147.974 86.2769C149.363 85.3017 150.279 83.9868 150.722 82.3321H154.002C153.411 84.696 152.141 86.6314 150.19 88.1384C148.27 89.6159 145.847 90.3546 142.921 90.3546C140.646 90.3546 138.607 89.8523 136.805 88.8476C135.002 87.8134 133.584 86.3655 132.55 84.5039C131.545 82.6128 131.043 80.4114 131.043 77.8998C131.043 75.3881 131.545 73.1868 132.55 71.2956C133.554 69.4045 134.958 67.9566 136.76 66.952C138.563 65.9473 140.617 65.445 142.921 65.445C145.226 65.445 147.235 65.9473 148.949 66.952C150.693 67.9566 152.022 69.3159 152.938 71.0297C153.884 72.714 154.357 74.5903 154.357 76.6587ZM151.21 76.5701C151.239 74.7676 150.87 73.2311 150.102 71.9605C149.363 70.6899 148.344 69.7295 147.043 69.0795C145.743 68.4294 144.325 68.1044 142.788 68.1044C140.484 68.1044 138.519 68.8431 136.893 70.3205C135.268 71.798 134.367 73.8811 134.19 76.5701H151.21ZM158.704 77.8555C158.704 75.3734 159.206 73.2015 160.211 71.34C161.215 69.4488 162.589 68.0009 164.333 66.9963C166.105 65.9621 168.1 65.445 170.316 65.445C172.444 65.445 174.364 65.9621 176.078 66.9963C177.792 68.0305 179.048 69.375 179.846 71.0297V57.2009H182.948V90H179.846V84.5926C179.107 86.2769 177.895 87.6656 176.211 88.759C174.527 89.8227 172.547 90.3546 170.272 90.3546C168.056 90.3546 166.061 89.8375 164.288 88.8033C162.545 87.7691 161.171 86.3064 160.166 84.4153C159.191 82.5242 158.704 80.3376 158.704 77.8555ZM179.846 77.8998C179.846 75.9496 179.447 74.2357 178.649 72.7583C177.851 71.2809 176.758 70.1432 175.369 69.3454C174.01 68.5476 172.503 68.1487 170.848 68.1487C169.134 68.1487 167.598 68.5328 166.238 69.3011C164.879 70.0694 163.801 71.1922 163.003 72.6696C162.235 74.1175 161.85 75.8461 161.85 77.8555C161.85 79.8352 162.235 81.5786 163.003 83.0856C163.801 84.563 164.879 85.7007 166.238 86.4985C167.598 87.2667 169.134 87.6509 170.848 87.6509C172.503 87.6509 174.01 87.252 175.369 86.4541C176.758 85.6563 177.851 84.5187 178.649 83.0413C179.447 81.5638 179.846 79.85 179.846 77.8998ZM222.184 67.9271C222.184 70.5865 221.312 72.7287 219.569 74.3539C217.826 75.9791 215.21 76.7917 211.724 76.7917H205.474V90H202.372V59.0181H211.724C215.181 59.0181 217.781 59.8307 219.525 61.4559C221.297 63.0811 222.184 65.2381 222.184 67.9271ZM211.724 74.1323C216.57 74.1323 218.993 72.0639 218.993 67.9271C218.993 65.8587 218.416 64.2926 217.264 63.2288C216.112 62.1651 214.265 61.6332 211.724 61.6332H205.474V74.1323H211.724ZM226.06 77.8555C226.06 75.3734 226.548 73.2015 227.523 71.34C228.527 69.4488 229.901 68.0009 231.645 66.9963C233.418 65.9621 235.412 65.445 237.628 65.445C239.933 65.445 241.913 65.9769 243.568 67.0406C245.252 68.1044 246.464 69.4636 247.202 71.1183V65.7996H250.305V90H247.202V84.6369C246.434 86.2916 245.208 87.6656 243.523 88.759C241.869 89.8227 239.889 90.3546 237.584 90.3546C235.398 90.3546 233.418 89.8375 231.645 88.8033C229.901 87.7691 228.527 86.3064 227.523 84.4153C226.548 82.5242 226.06 80.3376 226.06 77.8555ZM247.202 77.8998C247.202 75.9496 246.803 74.2357 246.006 72.7583C245.208 71.2809 244.114 70.1432 242.726 69.3454C241.366 68.5476 239.859 68.1487 238.205 68.1487C236.491 68.1487 234.954 68.5328 233.595 69.3011C232.236 70.0694 231.157 71.1922 230.359 72.6696C229.591 74.1175 229.207 75.8461 229.207 77.8555C229.207 79.8352 229.591 81.5786 230.359 83.0856C231.157 84.563 232.236 85.7007 233.595 86.4985C234.954 87.2667 236.491 87.6509 238.205 87.6509C239.859 87.6509 241.366 87.252 242.726 86.4541C244.114 85.6563 245.208 84.5187 246.006 83.0413C246.803 81.5638 247.202 79.85 247.202 77.8998ZM260.579 70.0989C261.259 68.5919 262.293 67.4247 263.682 66.5974C265.1 65.77 266.829 65.3563 268.868 65.3563V68.5919H268.026C265.78 68.5919 263.977 69.1977 262.618 70.4092C261.259 71.6207 260.579 73.6448 260.579 76.4814V90H257.477V65.7996H260.579V70.0989ZM277.657 68.4146V83.4402C277.657 84.9176 277.938 85.937 278.499 86.4985C279.061 87.0599 280.051 87.3406 281.469 87.3406H284.306V90H280.981C278.795 90 277.17 89.4977 276.106 88.493C275.042 87.4588 274.51 85.7745 274.51 83.4402V68.4146H271.142V65.7996H274.51V59.7273H277.657V65.7996H284.306V68.4146H277.657ZM300.858 65.3563C303.754 65.3563 306.118 66.2576 307.95 68.06C309.782 69.833 310.698 72.4185 310.698 75.8166V90H307.639V76.1712C307.639 73.5413 306.974 71.532 305.645 70.1432C304.345 68.7544 302.557 68.06 300.282 68.06C297.947 68.06 296.086 68.7988 294.697 70.2762C293.308 71.7536 292.614 73.9255 292.614 76.7917V90H289.511V65.7996H292.614V69.9216C293.382 68.4442 294.49 67.3213 295.938 66.5531C297.386 65.7552 299.026 65.3563 300.858 65.3563ZM339.544 76.6587C339.544 77.7225 339.514 78.5351 339.455 79.0965H319.377C319.465 80.9285 319.909 82.4946 320.706 83.7948C321.504 85.0949 322.553 86.0848 323.853 86.7644C325.153 87.4145 326.572 87.7395 328.108 87.7395C330.118 87.7395 331.802 87.252 333.161 86.2769C334.55 85.3017 335.466 83.9868 335.909 82.3321H339.189C338.598 84.696 337.328 86.6314 335.377 88.1384C333.457 89.6159 331.034 90.3546 328.108 90.3546C325.833 90.3546 323.794 89.8523 321.992 88.8476C320.189 87.8134 318.771 86.3655 317.737 84.5039C316.732 82.6128 316.23 80.4114 316.23 77.8998C316.23 75.3881 316.732 73.1868 317.737 71.2956C318.741 69.4045 320.145 67.9566 321.947 66.952C323.75 65.9473 325.803 65.445 328.108 65.445C330.413 65.445 332.422 65.9473 334.136 66.952C335.88 67.9566 337.209 69.3159 338.125 71.0297C339.071 72.714 339.544 74.5903 339.544 76.6587ZM336.397 76.5701C336.426 74.7676 336.057 73.2311 335.289 71.9605C334.55 70.6899 333.53 69.7295 332.23 69.0795C330.93 68.4294 329.512 68.1044 327.975 68.1044C325.671 68.1044 323.706 68.8431 322.08 70.3205C320.455 71.798 319.554 73.8811 319.377 76.5701H336.397ZM348.411 70.0989C349.091 68.5919 350.125 67.4247 351.514 66.5974C352.932 65.77 354.661 65.3563 356.7 65.3563V68.5919H355.858C353.612 68.5919 351.81 69.1977 350.45 70.4092C349.091 71.6207 348.411 73.6448 348.411 76.4814V90H345.309V65.7996H348.411V70.0989Z" fill="white"/>
</g>
<defs>
<clipPath id="clip0_35586_237861">
<rect width="368" height="99" fill="white"/>
</clipPath>
</defs>
</svg>
