<svg width="336" height="122" viewBox="0 0 336 122" fill="none" xmlns="http://www.w3.org/2000/svg">
<path fill-rule="evenodd" clip-rule="evenodd" d="M27.508 29.9144C19.3172 33.3647 15.3233 41.9976 19.0345 50.8117C23.833 62.2063 44.9478 68.6763 45.9408 68.8212C46.8324 68.959 47.8762 68.4443 47.8762 67.4585C47.8762 66.4727 45.9408 58.2849 45.9408 57.705C45.9408 57.1251 46.267 56.6033 46.8251 56.3713C47.3833 56.1394 71.8686 45.7595 79.9869 42.3455C88.1052 38.9315 91.9541 29.7404 88.4603 21.4482C84.9666 13.1559 75.7248 9.53895 67.563 12.9747C59.4012 16.4105 35.6987 26.4714 27.508 29.9144Z" fill="#FF4D77"/>
<path fill-rule="evenodd" clip-rule="evenodd" d="M84.2334 92.2365C92.4242 88.7863 96.4181 80.1533 92.7069 71.3392C87.9084 59.9446 66.7936 53.5167 65.8006 53.3717C64.909 53.234 63.8652 53.7487 63.8652 54.7345C63.8652 55.7203 65.8006 63.866 65.8006 64.4459C65.8006 65.0258 65.4744 65.5477 64.9163 65.7796C64.3581 66.0116 39.8728 76.3914 31.7545 79.8054C23.6362 83.2194 19.7873 92.4105 23.281 100.703C26.7748 109.002 36.0166 112.612 44.1784 109.176C52.3474 105.74 76.0427 95.6796 84.2334 92.2365Z" fill="url(#paint0_linear_67247_27028)"/>
<path d="M120.517 24.3342H129.069V27.8849C130.719 25.5844 133.62 24.0341 137.221 24.0341C141.472 24.0341 144.872 25.8845 146.773 29.2352C148.623 26.2846 152.074 24.0341 156.175 24.0341C163.076 24.0341 167.527 28.4351 167.527 35.9367V52.2402H159.025V37.0869C159.025 33.4361 156.875 31.4357 153.674 31.4357C150.374 31.4357 148.323 33.4361 148.323 37.0869V52.2402H139.821V37.0869C139.821 33.4361 137.671 31.4357 134.47 31.4357C131.169 31.4357 129.069 33.4361 129.069 37.0869V52.2402H120.517V24.3342ZM185.964 52.8904C177.763 52.8904 171.611 47.3892 171.611 38.2872C171.611 29.1852 177.913 23.684 186.115 23.684C194.316 23.684 200.618 29.1852 200.618 38.2872C200.618 47.3892 194.216 52.8904 185.964 52.8904ZM180.263 38.2872C180.263 42.9882 182.914 45.2387 185.964 45.2387C189.015 45.2387 191.916 42.9882 191.916 38.2872C191.916 33.5362 189.065 31.3357 186.064 31.3357C183.014 31.3357 180.263 33.5362 180.263 38.2872ZM224.068 37.0869C224.068 33.2861 221.918 31.1857 218.717 31.1857C215.416 31.1857 213.316 33.2861 213.316 37.0869V52.2402H204.764V24.3342H213.316V28.085C215.016 25.6845 218.017 24.0341 221.768 24.0341C228.269 24.0341 232.57 28.4351 232.57 35.9367V52.2402H224.068V37.0869ZM248.918 23.9341C252.619 23.9341 255.77 25.6345 257.47 28.185V15.2322H266.072V52.2402H257.47V48.2394C255.97 50.7899 253.019 52.6403 248.868 52.6403C242.017 52.6403 236.616 47.0391 236.616 38.2372C236.616 29.4353 242.017 23.9341 248.918 23.9341ZM245.318 38.2372C245.318 42.6882 248.168 45.1887 251.419 45.1887C254.67 45.1887 257.52 42.7382 257.52 38.2872C257.52 33.8362 254.67 31.3857 251.419 31.3857C248.168 31.3857 245.318 33.7862 245.318 38.2372ZM282.518 23.9341C286.719 23.9341 289.67 25.8345 291.17 28.285V24.3342H299.722V52.2402H291.17V48.2894C289.62 50.7399 286.669 52.6403 282.518 52.6403C275.667 52.6403 270.266 47.0391 270.266 38.2372C270.266 29.4353 275.667 23.9341 282.518 23.9341ZM278.967 38.2372C278.967 42.6882 281.818 45.1887 285.069 45.1887C288.32 45.1887 291.17 42.7382 291.17 38.2872C291.17 33.8362 288.32 31.3857 285.069 31.3857C281.818 31.3857 278.967 33.7862 278.967 38.2372ZM309.067 62.1924L314.218 50.3898L302.915 24.3342H312.417L318.869 41.1878L325.47 24.3342H334.572L318.269 62.1924H309.067ZM130.485 102.635C124.321 102.635 120.13 99.2818 119.884 94.647H123.434C123.73 97.6054 126.442 99.7256 130.435 99.7256C134.281 99.7256 136.697 97.8026 136.697 95.1401C136.697 93.1678 135.366 91.7873 132.901 91.1956L126.688 89.7657C122.398 88.8289 120.377 86.2649 120.377 82.7149C120.377 77.9814 124.272 74.9244 130.09 74.9244C135.711 74.9244 139.458 78.0801 139.754 83.1586H136.303C136.106 79.9537 133.69 77.8828 129.992 77.8828C126.392 77.8828 123.878 79.7072 123.878 82.3204C123.878 84.4899 125.012 85.8705 127.871 86.5608L133.838 87.9907C137.93 88.9768 140.001 91.4421 140.05 94.5977C140.149 99.2818 136.204 102.635 130.485 102.635ZM166.475 86.5115C166.278 81.5808 162.284 77.8828 157.205 77.8828C152.127 77.8828 148.33 81.3836 147.689 86.5115H166.475ZM144.041 88.7796C144.041 80.644 149.612 74.9244 157.501 74.9244C164.7 74.9244 170.025 80.3975 170.025 87.7934C170.025 88.3358 169.976 88.7796 169.877 89.4699H147.591V89.5192C147.591 95.4852 151.683 99.7256 157.501 99.7256C161.643 99.7256 165.045 97.3589 166.081 93.9567H169.779C168.349 99.1832 163.418 102.635 157.501 102.635C149.612 102.635 144.041 96.9151 144.041 88.7796ZM175.411 102.24V75.3189H178.862V80.2495C180.194 76.9953 183.103 74.9244 186.998 74.9244C187.392 74.9244 187.738 74.9244 188.083 75.023V78.5731C187.59 78.4745 187.146 78.4745 186.653 78.4745C181.969 78.4745 178.862 81.9753 178.862 87.2018V102.24H175.411ZM192.992 75.3189L202.064 98.8874L211.137 75.3189H214.785L203.987 102.24H200.092L189.294 75.3189H192.992ZM218.97 75.3189H222.422V102.24H218.97V75.3189ZM218.181 67.6764C218.181 66.1972 219.315 65.1618 220.696 65.1618C222.077 65.1618 223.211 66.1972 223.211 67.6764C223.211 69.1556 222.077 70.2403 220.696 70.2403C219.315 70.2403 218.181 69.1556 218.181 67.6764ZM241.331 74.9244C248.086 74.9244 252.475 78.5238 253.707 84.0954H250.009C249.122 80.2495 245.868 77.8828 241.331 77.8828C235.661 77.8828 231.519 82.1232 231.519 88.7796C231.519 95.4359 235.661 99.7256 241.331 99.7256C245.868 99.7256 249.073 97.4082 250.009 93.4637H253.707C252.475 98.8381 248.086 102.635 241.331 102.635C233.64 102.635 227.969 97.0631 227.969 88.7796C227.969 80.4961 233.64 74.9244 241.331 74.9244ZM280.005 86.5115C279.808 81.5808 275.814 77.8828 270.735 77.8828C265.657 77.8828 261.86 81.3836 261.219 86.5115H280.005ZM257.571 88.7796C257.571 80.644 263.142 74.9244 271.031 74.9244C278.23 74.9244 283.555 80.3975 283.555 87.7934C283.555 88.3358 283.506 88.7796 283.407 89.4699H261.121V89.5192C261.121 95.4852 265.213 99.7256 271.031 99.7256C275.173 99.7256 278.575 97.3589 279.611 93.9567H283.309C281.879 99.1832 276.948 102.635 271.031 102.635C263.142 102.635 257.571 96.9151 257.571 88.7796Z" fill="white"/>
<defs>
<linearGradient id="paint0_linear_67247_27028" x1="71.2674" y1="113.997" x2="69.6121" y2="55.085" gradientUnits="userSpaceOnUse">
<stop stop-color="#FF4D77"/>
<stop offset="0.47" stop-color="#FF4D77" stop-opacity="0.85"/>
<stop offset="1" stop-color="#FF4D77" stop-opacity="0.4"/>
</linearGradient>
</defs>
</svg>
