<svg width="490" height="109" viewBox="0 0 490 109" fill="none" xmlns="http://www.w3.org/2000/svg">
<path d="M68.5627 12.5981C68.5627 5.6897 62.9652 0.0893555 56.0604 0.0893555C49.1556 0.0893555 43.5581 5.6897 43.5581 12.5981V26.3461C43.5581 33.2545 49.1556 38.8548 56.0604 38.8548C62.9652 38.8548 68.5627 33.2545 68.5627 26.3461V12.5981Z" fill="url(#paint0_linear_38906_119021)"/>
<path d="M19.6233 30.1447C13.0531 28.0099 5.99712 31.6028 3.86342 38.1697C1.72971 44.7366 5.32625 51.7907 11.8965 53.9255L24.9716 58.1738C31.5419 60.3086 38.5978 56.7157 40.7315 50.1489C42.8653 43.582 39.2687 36.5279 32.6985 34.3931L19.6233 30.1447Z" fill="url(#paint1_linear_38906_119021)"/>
<path d="M21.1644 82.1087C17.1037 87.6977 18.3403 95.5186 23.9265 99.5771C29.5126 103.636 37.3328 102.395 41.3935 96.806L49.4743 85.6836C53.535 80.0946 52.2983 72.2738 46.7122 68.2152C41.1261 64.1567 33.3059 65.3973 29.2452 70.9863L21.1644 82.1087Z" fill="url(#paint2_linear_38906_119021)"/>
<path d="M71.0762 96.663C75.1368 102.252 82.957 103.493 88.5432 99.4341C94.1293 95.3756 95.3659 87.5547 91.3053 81.9657L83.2244 70.8433C79.1638 65.2543 71.3435 64.0136 65.7574 68.0722C60.1713 72.1307 58.9347 79.9516 62.9953 85.5406L71.0762 96.663Z" fill="url(#paint3_linear_38906_119021)"/>
<path d="M56.1779 67.3612C63.0293 67.3612 68.5834 61.8071 68.5834 54.9558C68.5834 48.1044 63.0293 42.5503 56.1779 42.5503C49.3266 42.5503 43.7725 48.1044 43.7725 54.9558C43.7725 61.8071 49.3266 67.3612 56.1779 67.3612Z" fill="#6161FF"/>
<path d="M15.695 54.4598C22.5836 54.4598 28.1678 48.8756 28.1678 41.987C28.1678 35.0984 22.5836 29.5142 15.695 29.5142C8.80645 29.5142 3.22217 35.0984 3.22217 41.987C3.22217 48.8756 8.80645 54.4598 15.695 54.4598Z" fill="#6161FF"/>
<path d="M56.0532 24.9901C62.954 24.9901 68.5482 19.3959 68.5482 12.4951C68.5482 5.59423 62.954 0 56.0532 0C49.1523 0 43.5581 5.59423 43.5581 12.4951C43.5581 19.3959 49.1523 24.9901 56.0532 24.9901Z" fill="#6161FF"/>
<path d="M31.293 101.993C38.2057 101.993 43.8096 96.3893 43.8096 89.4766C43.8096 82.5638 38.2057 76.96 31.293 76.96C24.3803 76.96 18.7764 82.5638 18.7764 89.4766C18.7764 96.3893 24.3803 101.993 31.293 101.993Z" fill="#6161FF"/>
<path d="M81.2129 101.87C88.1108 101.87 93.7026 96.2782 93.7026 89.3804C93.7026 82.4825 88.1108 76.8906 81.2129 76.8906C74.315 76.8906 68.7231 82.4825 68.7231 89.3804C68.7231 96.2782 74.315 101.87 81.2129 101.87Z" fill="#6161FF"/>
<path d="M92.614 30.1394C99.1842 28.0045 106.24 31.5974 108.374 38.1643C110.508 44.7312 106.911 51.7853 100.341 53.9201L87.2657 58.1685C80.6954 60.3033 73.6395 56.7104 71.5058 50.1435C69.372 43.5766 72.9686 36.5225 79.5389 34.3877L92.614 30.1394Z" fill="url(#paint4_linear_38906_119021)"/>
<path d="M96.5379 54.4559C89.6493 54.4559 84.0651 48.8716 84.0651 41.9831C84.0651 35.0945 89.6493 29.5103 96.5379 29.5103C103.426 29.5103 109.011 35.0945 109.011 41.9831C109.011 48.8716 103.426 54.4559 96.5379 54.4559Z" fill="#6161FF"/>
<path d="M134.388 19.8947V47.8008H142.94V32.6475C142.94 28.9967 145.04 26.9963 148.341 26.9963C151.541 26.9963 153.692 28.9967 153.692 32.6475V47.8008H162.194V32.6475C162.194 28.9967 164.244 26.9963 167.545 26.9963C170.746 26.9963 172.896 28.9967 172.896 32.6475V47.8008H181.398V31.4972C181.398 23.9956 176.947 19.5947 170.045 19.5947C165.945 19.5947 162.494 21.8451 160.643 24.7958C158.743 21.4451 155.342 19.5947 151.091 19.5947C147.491 19.5947 144.59 21.145 142.94 23.4455V19.8947H134.388ZM199.835 48.4509C208.087 48.4509 214.488 42.9497 214.488 33.8477C214.488 24.7458 208.187 19.2446 199.985 19.2446C191.783 19.2446 185.482 24.7458 185.482 33.8477C185.482 42.9497 191.633 48.4509 199.835 48.4509ZM194.134 33.8477C194.134 29.0967 196.884 26.8962 199.935 26.8962C202.936 26.8962 205.786 29.0967 205.786 33.8477C205.786 38.5488 202.886 40.7993 199.835 40.7993C196.784 40.7993 194.134 38.5488 194.134 33.8477ZM237.939 32.6475V47.8008H246.441V31.4972C246.441 23.9956 242.14 19.5947 235.638 19.5947C231.887 19.5947 228.887 21.245 227.186 23.6455V19.8947H218.634V47.8008H227.186V32.6475C227.186 28.8467 229.287 26.7462 232.588 26.7462C235.788 26.7462 237.939 28.8467 237.939 32.6475ZM262.789 19.4946C255.887 19.4946 250.486 24.9958 250.486 33.7977C250.486 42.5997 255.887 48.2009 262.739 48.2009C266.89 48.2009 269.841 46.3505 271.341 43.7999V47.8008H279.943V10.7927H271.341V23.7456C269.64 21.195 266.49 19.4946 262.789 19.4946ZM259.188 33.7977C259.188 29.3468 262.039 26.9462 265.29 26.9462C268.54 26.9462 271.391 29.3968 271.391 33.8477C271.391 38.2987 268.54 40.7492 265.29 40.7492C262.039 40.7492 259.188 38.2487 259.188 33.7977ZM296.389 19.4946C289.537 19.4946 284.136 24.9958 284.136 33.7977C284.136 42.5997 289.537 48.2009 296.389 48.2009C300.54 48.2009 303.49 46.3005 305.041 43.8499V47.8008H313.593V19.8947H305.041V23.8456C303.54 21.395 300.59 19.4946 296.389 19.4946ZM292.838 33.7977C292.838 29.3468 295.689 26.9462 298.939 26.9462C302.19 26.9462 305.041 29.3968 305.041 33.8477C305.041 38.2987 302.19 40.7492 298.939 40.7492C295.689 40.7492 292.838 38.2487 292.838 33.7977ZM322.937 57.7529H332.139L348.443 19.8947H339.341L332.739 36.7484L326.288 19.8947H316.786L328.088 45.9504L322.937 57.7529ZM363.363 20.8794L371.794 47.8008H375.295L382.74 25.2184L390.186 47.8008H393.637L402.068 20.8794H398.666L391.862 42.9194L384.565 20.8794H381.113L373.569 43.3139L366.864 20.8794H363.363ZM417.782 48.1952C425.523 48.1952 431.39 42.6236 431.39 34.3401C431.39 26.0073 425.622 20.485 417.93 20.485C410.238 20.485 404.469 26.0073 404.469 34.3401C404.469 42.6236 410.09 48.1952 417.782 48.1952ZM407.97 34.3401C407.97 27.5358 412.309 23.4927 417.88 23.4927C423.403 23.4927 427.84 27.5358 427.84 34.3401C427.84 41.0951 423.353 45.1875 417.782 45.1875C412.259 45.1875 407.97 41.0951 407.97 34.3401ZM437.247 47.8008H440.699V32.7623C440.699 27.5358 443.805 24.0351 448.489 24.0351C448.982 24.0351 449.426 24.0351 449.919 24.1337V20.5836C449.574 20.485 449.229 20.485 448.834 20.485C444.939 20.485 442.03 22.5559 440.699 25.8101V20.8794H437.247V47.8008ZM454.582 11.314V47.8008H458.033V35.5235L471.099 47.8008H475.882L461.041 34.2908L475.784 20.8794H470.902L458.033 33.1074V11.314H454.582ZM135.135 70.8794V97.8008H138.586V83.2061C138.586 76.6483 141.989 73.3941 146.919 73.3941C151.702 73.3941 154.858 76.4511 154.858 82.4172V97.8008H158.26V83.2061C158.26 76.6483 161.711 73.3941 166.593 73.3941C171.375 73.3941 174.482 76.4511 174.482 82.4172V97.8008H177.884V82.0227C177.884 74.1337 173.15 70.3864 167.184 70.3864C162.895 70.3864 158.95 72.6052 157.471 76.9934C155.844 72.5066 151.998 70.3864 147.511 70.3864C143.714 70.3864 140.312 72.1121 138.586 75.5142V70.8794H135.135ZM196.601 70.485C189.254 70.485 183.732 76.0566 183.732 84.2908C183.732 92.4757 189.254 98.1952 196.551 98.1952C201.63 98.1952 205.673 95.3848 207.251 91.8347V97.8008H210.702V70.8794H207.251V76.7962C205.722 73.2955 201.679 70.485 196.601 70.485ZM187.282 84.2908C187.282 77.6344 191.719 73.4927 197.242 73.4927C202.813 73.4927 207.251 77.733 207.251 84.3401C207.251 90.9472 202.813 95.1875 197.242 95.1875C191.719 95.1875 187.282 90.8979 187.282 84.2908ZM238.265 82.4172V97.8008H241.667V82.0227C241.667 74.5774 237.181 70.3864 230.721 70.3864C226.629 70.3864 223.227 72.3586 221.55 75.4649V70.8794H218.099V97.8008H221.55V83.1074C221.55 76.9441 224.854 73.3941 230.08 73.3941C235.06 73.3941 238.265 76.6976 238.265 82.4172ZM260.4 70.485C253.054 70.485 247.531 76.0566 247.531 84.2908C247.531 92.4757 253.054 98.1952 260.351 98.1952C265.43 98.1952 269.473 95.3848 271.051 91.8347V97.8008H274.502V70.8794H271.051V76.7962C269.522 73.2955 265.479 70.485 260.4 70.485ZM251.082 84.2908C251.082 77.6344 255.519 73.4927 261.041 73.4927C266.613 73.4927 271.051 77.733 271.051 84.3401C271.051 90.9472 266.613 95.1875 261.041 95.1875C255.519 95.1875 251.082 90.8979 251.082 84.2908ZM293.239 70.485C285.893 70.485 280.37 76.0566 280.37 83.995C280.37 91.9826 285.893 97.6529 293.239 97.6529C298.614 97.6529 302.361 94.7438 303.89 91.2923V97.998C303.89 102.633 300.093 105.887 294.768 105.887C289.837 105.887 286.435 103.323 285.35 99.7237H281.899C282.984 105.295 287.816 108.895 294.768 108.895C302.509 108.895 307.341 103.915 307.341 97.998V70.8794H303.89V76.7469C302.361 73.3448 298.614 70.485 293.239 70.485ZM283.92 83.995C283.92 77.6344 288.358 73.4927 293.88 73.4927C299.452 73.4927 303.89 77.733 303.89 84.0443C303.89 90.4541 299.452 94.6452 293.88 94.6452C288.358 94.6452 283.92 90.4048 283.92 83.995ZM335.644 82.072H316.858C317.499 76.9441 321.296 73.4434 326.374 73.4434C331.453 73.4434 335.446 77.1414 335.644 82.072ZM313.209 84.3401C313.209 92.4757 318.781 98.1952 326.67 98.1952C332.587 98.1952 337.517 94.7438 338.947 89.5173H335.249C334.214 92.9194 330.812 95.2862 326.67 95.2862C320.852 95.2862 316.759 91.0458 316.759 85.0797V85.0304H339.046C339.144 84.3401 339.194 83.8964 339.194 83.354C339.194 75.958 333.869 70.485 326.67 70.485C318.781 70.485 313.209 76.2045 313.209 84.3401ZM345.073 70.8794V97.8008H348.524V83.2061C348.524 76.6483 351.926 73.3941 356.857 73.3941C361.64 73.3941 364.795 76.4511 364.795 82.4172V97.8008H368.198V83.2061C368.198 76.6483 371.649 73.3941 376.53 73.3941C381.313 73.3941 384.419 76.4511 384.419 82.4172V97.8008H387.822V82.0227C387.822 74.1337 383.088 70.3864 377.122 70.3864C372.832 70.3864 368.888 72.6052 367.409 76.9934C365.782 72.5066 361.936 70.3864 357.449 70.3864C353.652 70.3864 350.25 72.1121 348.524 75.5142V70.8794H345.073ZM416.104 82.072H397.318C397.959 76.9441 401.756 73.4434 406.834 73.4434C411.913 73.4434 415.907 77.1414 416.104 82.072ZM393.669 84.3401C393.669 92.4757 399.241 98.1952 407.13 98.1952C413.047 98.1952 417.977 94.7438 419.407 89.5173H415.709C414.674 92.9194 411.272 95.2862 407.13 95.2862C401.312 95.2862 397.219 91.0458 397.219 85.0797V85.0304H419.506C419.605 84.3401 419.654 83.8964 419.654 83.354C419.654 75.958 414.329 70.485 407.13 70.485C399.241 70.485 393.669 76.2045 393.669 84.3401ZM445.699 82.4172V97.8008H449.101V82.0227C449.101 74.5774 444.614 70.3864 438.155 70.3864C434.063 70.3864 430.661 72.3586 428.984 75.4649V70.8794H425.533V97.8008H428.984V83.1074C428.984 76.9441 432.288 73.3941 437.514 73.3941C442.494 73.3941 445.699 76.6976 445.699 82.4172ZM458.676 64.1244V70.8794H453.006V73.7885H458.676V90.5034C458.676 95.8778 461.191 97.8008 465.875 97.8008H469.622V94.8424H466.861C463.41 94.8424 462.177 93.7083 462.177 90.1583V73.7885H469.622V70.8794H462.177V64.1244H458.676Z" fill="white"/>
<defs>
<linearGradient id="paint0_linear_38906_119021" x1="55.9786" y1="-23.9346" x2="56.2536" y2="41.3529" gradientUnits="userSpaceOnUse">
<stop offset="0.411458" stop-color="#6C6CFF" stop-opacity="0.9"/>
<stop offset="1" stop-color="#6C6CFF" stop-opacity="0.2"/>
</linearGradient>
<linearGradient id="paint1_linear_38906_119021" x1="-19.01" y1="30.8237" x2="43.1671" y2="50.7371" gradientUnits="userSpaceOnUse">
<stop offset="0.411458" stop-color="#6C6CFF" stop-opacity="0.9"/>
<stop offset="1" stop-color="#6C6CFF" stop-opacity="0.2"/>
</linearGradient>
<linearGradient id="paint2_linear_38906_119021" x1="9.8717" y1="119.061" x2="48.0243" y2="66.0806" gradientUnits="userSpaceOnUse">
<stop offset="0.411458" stop-color="#6C6CFF" stop-opacity="0.9"/>
<stop offset="1" stop-color="#6C6CFF" stop-opacity="0.2"/>
</linearGradient>
<linearGradient id="paint3_linear_38906_119021" x1="102.73" y1="118.822" x2="64.1327" y2="66.1648" gradientUnits="userSpaceOnUse">
<stop offset="0.411458" stop-color="#6C6CFF" stop-opacity="0.9"/>
<stop offset="1" stop-color="#6C6CFF" stop-opacity="0.2"/>
</linearGradient>
<linearGradient id="paint4_linear_38906_119021" x1="131.247" y1="30.8183" x2="69.0702" y2="50.7317" gradientUnits="userSpaceOnUse">
<stop offset="0.411458" stop-color="#6C6CFF" stop-opacity="0.9"/>
<stop offset="1" stop-color="#6C6CFF" stop-opacity="0.2"/>
</linearGradient>
</defs>
</svg>
