<svg width="321" height="105" viewBox="0 0 321 105" fill="none" xmlns="http://www.w3.org/2000/svg">
<path d="M82.2922 53.3005C82.3994 54.8198 81.1547 56.0561 79.6316 56.0561L46.36 56.0567C44.8369 56.0567 43.5921 57.2931 43.6993 58.8124C44.2657 66.84 47.296 74.5201 52.4067 80.776C58.0996 87.7445 66.0216 92.5145 74.8229 94.2732C83.6243 96.0319 92.7603 94.6705 100.675 90.4209C108.589 86.1714 114.791 79.2966 118.225 70.9681C121.659 62.6395 122.113 53.3724 119.508 44.7458C116.903 36.1191 111.401 28.6668 103.939 23.6584C96.478 18.6501 87.5187 16.3956 78.5882 17.2792C75.9204 17.5432 73.3044 18.0823 70.7783 18.8786C68.1878 19.6882 65.6911 20.7681 63.329 22.0987C63.1878 22.1783 63.0471 22.2587 62.9069 22.34C68.852 25.7882 73.8132 30.7803 77.2394 36.8399L77.2501 36.6743C77.2763 36.7201 77.3023 36.7661 77.3283 36.812C80.2061 41.9017 81.8855 47.5399 82.2922 53.3005Z" fill="#00A0A0"/>
<ellipse cx="43.603" cy="56.057" rx="38.7881" ry="38.9654" fill="white"/>
<ellipse cx="43.603" cy="56.057" rx="38.7881" ry="38.9654" fill="url(#paint0_linear_67247_26380)"/>
<path d="M63.0037 89.8059C74.594 83.0677 82.3915 70.4771 82.3915 56.057C82.4244 54.4833 82.2922 53.3005 82.2922 53.3005C82.3661 54.8086 81.1547 56.0561 79.6316 56.0561L46.36 56.0567C44.8369 56.0568 43.5921 57.2931 43.6993 58.8124C44.2657 66.84 47.296 74.5202 52.4067 80.776C55.3912 84.4292 58.9883 87.4783 63.0037 89.8059Z" fill="url(#paint1_linear_67247_26380)"/>
<path fill-rule="evenodd" clip-rule="evenodd" d="M244.872 28.6716C247.945 28.6716 250.561 30.0835 251.973 32.2014V21.4458H259.116V52.1762H251.973V48.854C250.728 50.9719 248.277 52.5084 244.831 52.5084C239.141 52.5084 234.656 47.8573 234.656 40.5485C234.656 33.2396 239.141 28.6716 244.872 28.6716ZM241.882 40.5485C241.882 44.2444 244.249 46.3208 246.949 46.3208C249.648 46.3208 252.015 44.2859 252.015 40.59C252.015 36.894 249.648 34.8592 246.949 34.8592C244.249 34.8592 241.882 36.8525 241.882 40.5485ZM279.556 32.2845C278.31 30.2497 275.86 28.6716 272.372 28.6716C266.682 28.6716 262.197 33.2397 262.197 40.5485C262.197 47.8574 266.682 52.5084 272.372 52.5084C275.818 52.5084 278.268 50.9304 279.556 48.8955V52.1762H286.657V29.0039H279.556V32.2845ZM274.489 46.3208C271.79 46.3208 269.423 44.2445 269.423 40.5485C269.423 36.8526 271.79 34.8592 274.489 34.8592C277.189 34.8592 279.556 36.8941 279.556 40.59C279.556 44.286 277.189 46.3208 274.489 46.3208ZM294.015 60.4402L298.292 50.6397L288.907 29.0038H296.797L302.154 42.9986L307.636 29.0038H315.194L301.656 60.4402H294.015ZM166.324 75.8271C164.912 70.0548 159.929 66.1512 152.827 66.1512C145.02 66.1512 138.833 72.2557 138.833 80.9765C138.833 89.6973 145.02 95.7603 152.827 95.7603C159.929 95.7603 164.912 91.8567 166.324 86.1259H163.251C161.963 90.2371 158.143 93.2271 152.827 93.2271C146.681 93.2271 141.823 88.5345 141.823 80.9765C141.823 73.377 146.681 68.6844 152.827 68.6844C158.143 68.6844 161.963 71.7159 163.251 75.8271H166.324ZM180.734 68.9336H174.173V81.0181H180.775C185.551 81.0181 187.627 78.4434 187.627 74.9136C187.627 71.2591 185.634 68.9336 180.734 68.9336ZM171.266 95.5112V66.4835H181.398C187.461 66.4835 190.617 69.8057 190.617 74.9136C190.617 79.0663 188.25 82.5546 182.852 83.2606L191.406 95.5112H187.918L179.613 83.3852H174.173V95.5112H171.266ZM194.949 66.8572H198.022L209.11 91.6907L220.198 66.8572H223.312V95.5112H220.406V72.6295L210.19 95.5112H208.072L197.856 72.7126V95.5112H194.949V66.8572ZM220.195 34.693C222.853 34.693 224.638 36.4372 224.638 39.5933V52.1761H231.698V38.6382C231.698 32.409 228.127 28.7546 222.728 28.7546C219.614 28.7546 217.122 30.125 215.71 32.1183V29.0038H208.609V52.1761H215.71V39.5933C215.71 36.4372 217.454 34.693 220.195 34.693ZM193.4 52.716C186.589 52.716 181.481 48.148 181.481 40.59C181.481 33.032 186.714 28.464 193.524 28.464C200.335 28.464 205.567 33.032 205.567 40.59C205.567 48.148 200.252 52.716 193.4 52.716ZM188.666 40.59C188.666 44.4936 190.867 46.3623 193.4 46.3623C195.933 46.3623 198.342 44.4936 198.342 40.59C198.342 36.6449 195.975 34.8177 193.483 34.8177C190.95 34.8177 188.666 36.6449 188.666 40.59ZM146.557 29.0038H139.456V52.1761H146.557V39.5933C146.557 36.5618 148.301 34.9007 151.042 34.9007C153.699 34.9007 155.485 36.5618 155.485 39.5933V52.1761H162.545V39.5933C162.545 36.5618 164.247 34.9007 166.988 34.9007C169.646 34.9007 171.432 36.5618 171.432 39.5933V52.1761H178.491V38.6382C178.491 32.409 174.795 28.7546 169.065 28.7546C165.659 28.7546 162.794 30.6233 161.258 33.0735C159.679 30.2911 156.856 28.7546 153.326 28.7546C150.336 28.7546 147.927 30.042 146.557 31.9522V29.0038Z" fill="white"/>
<defs>
<linearGradient id="paint0_linear_67247_26380" x1="16.6271" y1="32.6661" x2="82.515" y2="66.1875" gradientUnits="userSpaceOnUse">
<stop stop-color="#00D2D2"/>
<stop offset="1" stop-color="#00D2D2" stop-opacity="0.29"/>
</linearGradient>
<linearGradient id="paint1_linear_67247_26380" x1="86.5995" y1="76.1655" x2="24.8928" y2="63.3667" gradientUnits="userSpaceOnUse">
<stop stop-color="#00A0A0"/>
<stop offset="1" stop-color="#00D2D2"/>
</linearGradient>
</defs>
</svg>
